<svg width="16" height="16" viewBox="0 0 16 16" fill="none" xmlns="http://www.w3.org/2000/svg">
<path d="M9.44772 13.9269C12.2364 13.7415 14.4577 11.4887 14.6405 8.66042C14.6763 8.10695 14.6763 7.53379 14.6405 6.98032C14.4577 4.15209 12.2364 1.89926 9.44772 1.71389C8.49633 1.65065 7.50303 1.65077 6.55358 1.71389C3.76491 1.89926 1.54359 4.15209 1.36081 6.98032C1.32504 7.53379 1.32504 8.10695 1.36081 8.66042C1.42738 9.6905 1.88294 10.6442 2.41926 11.4496C2.73066 12.0134 2.52515 12.7171 2.20079 13.3317C1.96692 13.7749 1.84999 13.9965 1.94388 14.1566C2.03777 14.3166 2.24749 14.3218 2.66693 14.332C3.49643 14.3522 4.05577 14.117 4.49977 13.7896C4.75159 13.6039 4.8775 13.511 4.96428 13.5004C5.05105 13.4897 5.22183 13.56 5.56332 13.7007C5.87025 13.8271 6.22663 13.9051 6.55358 13.9269C7.50303 13.99 8.49633 13.9901 9.44772 13.9269Z" stroke="#EB5B2A" stroke-width="1.5" stroke-linejoin="round"/>
<path d="M7.99766 8H8.00364M10.6613 8H10.6673M5.33398 8H5.33997" stroke="#EB5B2A" stroke-width="2" stroke-linecap="round" stroke-linejoin="round"/>
</svg>
