<svg width="24" height="24" viewBox="0 0 24 24" fill="none" xmlns="http://www.w3.org/2000/svg">
<g id="Language">
<g id="Group">
<path id="Layer 2" d="M21.1096 17.5757C22.1392 15.8985 22.6829 13.9683 22.6802 12.0003C22.6829 10.0322 22.1392 8.10169 21.1096 6.42436L21.1039 6.415C20.1487 4.85817 18.8103 3.5723 17.2165 2.68026C15.6226 1.78822 13.8267 1.31982 12.0002 1.31982C10.1737 1.31982 8.37776 1.78822 6.78393 2.68026C5.1901 3.5723 3.85167 4.85817 2.89652 6.415L2.89076 6.42436C1.86377 8.10282 1.32031 10.0323 1.32031 12C1.32031 13.9678 1.86377 15.8973 2.89076 17.5757L2.89676 17.5853C3.85194 19.1421 5.19038 20.4279 6.7842 21.3199C8.37802 22.2118 10.1739 22.6802 12.0004 22.6802C13.8268 22.6801 15.6227 22.2117 17.2165 21.3197C18.8103 20.4277 20.1487 19.1419 21.1039 17.5851L21.1096 17.5757ZM13.3653 20.8496C13.1618 21.046 12.9275 21.2078 12.6717 21.3286C12.4619 21.4283 12.2324 21.48 12.0001 21.48C11.7677 21.48 11.5383 21.4283 11.3284 21.3286C10.8419 21.0801 10.4253 20.7135 10.1169 20.2625C9.48712 19.3523 9.0204 18.3396 8.73764 17.2695C9.82404 17.2026 10.9116 17.1685 12.0002 17.1672C13.0884 17.1672 14.176 17.2013 15.263 17.2695C15.1064 17.8196 14.9109 18.358 14.6779 18.8804C14.371 19.615 13.9254 20.2836 13.3653 20.8496ZM2.54108 12.6H6.84884C6.87691 13.802 7.00722 14.9995 7.23836 16.1794C6.06076 16.2831 4.8862 16.4255 3.71468 16.6066C3.02858 15.3757 2.62752 14.0066 2.54108 12.6ZM3.71468 7.39372C4.88572 7.57516 6.06068 7.71756 7.23956 7.82092C7.00801 9.0007 6.87746 10.1981 6.84932 11.4H2.54108C2.62755 9.9936 3.02861 8.62451 3.71468 7.39372ZM10.6351 3.15052C10.8386 2.9541 11.0729 2.79228 11.3287 2.67148C11.5385 2.57176 11.768 2.52003 12.0003 2.52003C12.2327 2.52003 12.4621 2.57176 12.672 2.67148C13.1585 2.92001 13.5751 3.28653 13.8835 3.73756C14.5133 4.64773 14.98 5.6605 15.2628 6.7306C14.1764 6.79748 13.0888 6.83156 12.0002 6.83284C10.912 6.83284 9.82444 6.79876 8.7374 6.7306C8.89394 6.18042 9.08948 5.6421 9.32252 5.11972C9.62938 4.38504 10.075 3.71644 10.6351 3.15052ZM21.4593 11.4H17.1516C17.1235 10.198 16.9932 9.00059 16.762 7.82068C17.9396 7.717 19.1142 7.5746 20.2857 7.39348C20.9718 8.62434 21.3729 9.99352 21.4593 11.4ZM8.44532 16.086C8.21067 14.938 8.07815 13.7714 8.04932 12.6H15.9513C15.9228 13.7715 15.7905 14.9381 15.556 16.0863C14.372 16.0085 13.1868 15.9688 12.0002 15.9672C10.8146 15.9672 9.62964 16.0068 8.44532 16.086ZM15.5551 7.91404C15.7897 9.06207 15.9222 10.2286 15.9511 11.4H8.04932C8.07788 10.2286 8.21016 9.06192 8.4446 7.9138C9.6286 7.99156 10.8139 8.03124 12.0004 8.03284C13.186 8.03284 14.371 7.99316 15.5553 7.9138L15.5551 7.91404ZM17.1511 12.6H21.4593C21.3728 14.0065 20.9718 15.3756 20.2857 16.6064C19.1145 16.4249 17.9396 16.2825 16.7608 16.1792C16.9924 14.9994 17.1229 13.802 17.1511 12.6ZM19.5662 6.28924C18.5422 6.43692 17.5152 6.55388 16.4853 6.64012C16.3002 5.95084 16.0615 5.27711 15.7713 4.62508C15.5063 4.02509 15.1729 3.45773 14.7777 2.93428C16.6875 3.52003 18.3635 4.69424 19.5662 6.28924ZM5.297 5.2966C6.39258 4.19997 7.74045 3.38882 9.22244 2.93428C9.19988 2.96356 9.17684 2.9914 9.15476 3.02092C8.39299 4.11745 7.83811 5.34402 7.51748 6.64012C6.4874 6.55292 5.45972 6.43596 4.43444 6.28924C4.69883 5.93895 4.98703 5.60728 5.297 5.2966ZM4.43444 17.7108C5.45828 17.5632 6.48524 17.4462 7.51532 17.36C7.70041 18.0492 7.93914 18.723 8.22932 19.375C8.4943 19.975 8.82771 20.5423 9.22292 21.0658C7.31309 20.48 5.63716 19.3058 4.43444 17.7108ZM18.7039 18.7035C17.6083 19.8001 16.2604 20.6113 14.7784 21.0658C14.801 21.0365 14.824 21.0087 14.8461 20.9792C15.6079 19.8826 16.1628 18.6561 16.4834 17.36C17.5135 17.4472 18.5412 17.5641 19.5664 17.7108C19.302 18.0611 19.0138 18.3928 18.7039 18.7035Z" fill="#667085"/>
</g>
</g>
</svg>
