<svg width="189" height="40" viewBox="0 0 189 40" fill="none" xmlns="http://www.w3.org/2000/svg">
<g id="Logo">
<path id="Vector" d="M0 31.4436L0.0261902 30.3437C0.235699 30.2913 0.602343 30.1866 1.12612 30.108C1.96415 29.9509 2.46173 29.7937 2.64505 29.6628C2.82837 29.5318 3.03788 29.2176 3.29977 28.72L6.57335 20.1039L10.4231 9.99512C10.7897 9.99512 11.1302 9.99512 11.4444 9.99512H12.1777L12.3348 10.2832L15.1632 16.9875C15.7917 18.4017 16.3679 19.7897 16.8917 21.1253C17.3892 22.4609 17.8345 23.5608 18.2011 24.3989C18.4106 24.8964 18.7249 25.6821 19.0915 26.7035C19.2748 27.2534 19.5891 27.9605 19.9819 28.7986C20.1914 29.2438 20.3748 29.5318 20.4795 29.5842C20.6628 29.7413 21.0033 29.8461 21.4223 29.8985C21.8675 29.9508 22.3389 30.0818 22.8365 30.2651C22.8889 30.6318 22.915 30.8936 22.915 31.0508C22.915 31.1293 22.915 31.2341 22.8889 31.4174C22.077 31.4174 21.2128 31.3912 20.2438 31.3127C19.2748 31.2341 18.4106 31.2079 17.6511 31.2079C16.7869 31.2079 16.1846 31.2079 15.7917 31.2341L13.0157 31.3912L12.2301 31.4174C12.2301 31.0508 12.2563 30.6841 12.2825 30.3175L14.0895 29.9247C14.6394 29.7937 14.9537 29.6628 15.0323 29.6104C15.137 29.5056 15.1894 29.3747 15.1894 29.2438C15.1894 29.1128 15.1632 28.9557 15.1108 28.7986L14.4561 27.201L13.1729 24.006L6.96618 23.9798C6.73048 24.5036 6.25908 25.7869 5.5258 27.8034C5.31629 28.3795 5.21153 28.7724 5.21153 28.9819C5.21153 29.2699 5.29011 29.4533 5.44724 29.5842C5.70913 29.7937 6.18052 29.9247 6.88761 30.0294C6.99237 30.0556 7.35901 30.108 8.03991 30.2127C8.03991 30.6056 8.0661 30.8675 8.0661 31.0246C8.0661 31.1555 8.0661 31.2603 8.03991 31.3912C7.35901 31.3912 5.7615 31.2865 3.22121 31.1031L2.56649 31.2079C1.75464 31.3388 0.995168 31.3912 0.261886 31.3912H0V31.4436ZM7.67327 22.2776C10.2136 22.3038 11.7063 22.33 12.1515 22.33L12.5705 22.3038C12.2563 21.3348 11.8111 20.2087 11.3135 18.9254C10.7897 17.6422 10.3707 16.6732 10.0564 15.9923L7.67327 22.2776Z" fill="url(#paint0_linear_5325_1664)"/>
<path id="Vector_2" d="M22.9411 30.6316C23.072 30.5006 23.2553 30.4221 23.491 30.3697C24.041 30.2388 24.5647 30.0292 25.0623 29.715C25.1671 29.4531 25.2195 28.5889 25.2195 27.0699C25.2195 24.3201 25.1671 22.4869 25.0361 21.5179C25.01 21.3346 24.9314 21.2037 24.7743 21.0727C24.5124 20.9418 24.1457 20.8108 23.6743 20.7061C23.4648 20.6537 23.3339 20.5228 23.2815 20.3394L23.2291 19.7371C24.041 19.6324 24.7481 19.3443 25.4028 18.9253C26.0575 18.4801 26.5551 18.0348 26.8693 17.5896C27.0527 17.3278 27.1836 17.1444 27.3146 17.0135L28.4669 16.9873C28.5192 17.2492 28.5454 17.4325 28.5454 17.6158C28.5454 17.7468 28.5454 17.8777 28.5192 18.061C28.5192 18.4539 28.493 18.7681 28.493 19.0038C28.493 19.1348 28.493 19.58 28.5192 20.3656C28.9644 19.6062 29.2787 19.1086 29.4882 18.8467C29.593 18.7158 29.881 18.4539 30.3524 18.061C30.7191 17.7992 31.1381 17.642 31.6095 17.642C32.1856 17.642 32.6832 17.8253 33.1022 18.2182C33.5213 18.611 33.7308 19.0562 33.7308 19.58C33.7308 20.0776 33.5736 20.549 33.2594 20.968C32.9451 21.387 32.4999 21.5703 31.9761 21.5703C31.5047 21.5703 31.0333 21.387 30.5096 20.9942C30.1953 20.7585 29.9596 20.6275 29.7763 20.6275L29.6715 20.6537C29.4358 20.7323 29.2263 20.9418 29.043 21.2822C28.7287 21.8322 28.5978 22.3822 28.5978 22.9583L28.624 23.4035C28.6764 24.2154 28.7026 26.0748 28.7287 29.0341C28.7549 29.296 28.8597 29.584 29.043 29.8459C29.2263 30.0031 29.4358 30.1078 29.6453 30.1602C29.8549 30.2126 30.1953 30.2911 30.6929 30.3173C31.1905 30.3697 31.5047 30.4221 31.6095 30.5268C31.7142 30.6316 31.7666 30.7625 31.7666 30.972C31.7666 31.103 31.7404 31.2601 31.6619 31.4434H30.1429L27.0265 31.2863C26.2408 31.2863 25.5337 31.3125 24.9052 31.391H24.6433C24.5647 31.391 24.0148 31.4172 22.9411 31.4696C22.9149 31.2863 22.8887 31.1553 22.8887 31.0768C22.8887 30.9982 22.9149 30.7887 22.9411 30.6316Z" fill="url(#paint1_linear_5325_1664)"/>
<path id="Vector_3" d="M79.9279 18.2706C80.0588 18.2182 80.1374 18.192 80.2159 18.1658H85.0608L85.4275 18.192L85.4537 19.2919L85.4013 20.8895L85.4275 21.7275L85.4013 24.1892V25.8653C85.4013 26.9652 85.4537 27.8294 85.5846 28.458C85.7417 28.9294 86.0036 29.296 86.3703 29.5317C86.7369 29.7674 87.1821 29.8983 87.7059 29.8983C88.2035 29.8983 88.5963 29.846 88.8844 29.7412C89.1986 29.6365 89.5391 29.4531 89.9319 29.1913C90.3247 28.9294 90.5866 28.7199 90.6914 28.6151C91.0057 28.2746 91.2152 27.9604 91.3461 27.6461L91.4508 23.5869C91.477 23.1679 91.477 22.8274 91.477 22.5393C91.477 22.2513 91.477 21.9108 91.4508 21.4656C91.4247 21.0466 91.4247 20.7847 91.4247 20.7323L91.4508 20.13L91.4247 19.7633C91.1628 19.6062 90.7961 19.5015 90.3247 19.4491L89.2248 19.3705C89.1724 19.3443 89.0939 19.292 89.0415 19.2658C88.9891 19.0563 88.9891 18.8729 88.9891 18.7682C88.9891 18.6372 89.0153 18.4539 89.0415 18.2182C89.4081 18.1658 89.7224 18.1396 89.9843 18.1396L92.4984 18.1658C93.1793 18.1658 93.9911 18.1658 94.9863 18.1396L95.0125 19.3705L94.9601 20.9418L94.9863 22.8798L94.9601 25.682L94.9339 26.939L94.9601 27.7771C94.9078 28.3532 94.9077 28.6675 94.9077 28.746C94.9077 29.0079 94.9601 29.2174 95.0649 29.3484C95.1696 29.4793 95.2482 29.5317 95.353 29.5317L96.8457 29.4793L97.029 29.5055C97.0552 29.8983 97.0814 30.1078 97.0814 30.1602C97.0814 30.2388 97.0552 30.3436 97.029 30.5269C96.4529 30.5531 96.0339 30.5792 95.7982 30.6316C94.6459 30.8935 93.3626 31.2863 92.0008 31.7839L91.3461 31.7577L91.3199 29.1127C91.189 29.2174 91.0057 29.4008 90.7438 29.6103C89.801 30.4483 88.9629 31.0245 88.282 31.3387C87.6011 31.6268 86.894 31.7839 86.1346 31.7839C85.2441 31.7839 84.4847 31.6006 83.83 31.234C83.1752 30.8673 82.7039 30.4221 82.3896 29.8722C82.1539 29.4531 81.9968 28.8508 81.9444 28.039C81.9182 27.8294 81.9182 26.7819 81.9182 24.8439L81.9444 24.3202C81.9968 23.2464 82.0229 22.4608 82.0229 21.9632C82.0229 21.099 81.9968 20.5228 81.9706 20.2347C81.9706 20.1038 81.9182 19.9205 81.8134 19.7372C81.6563 19.6848 81.473 19.6324 81.2635 19.58C80.5564 19.4491 80.1374 19.3443 79.9541 19.2396C79.9017 19.2134 79.8755 19.1348 79.8755 19.0301C79.8755 18.9777 79.8755 18.8729 79.9017 18.7682C79.8755 18.7158 79.9017 18.5325 79.9279 18.2706Z" fill="url(#paint2_linear_5325_1664)"/>
<path id="Vector_4" d="M98.2337 30.6315C98.5218 30.5006 98.7837 30.422 99.0194 30.3696C99.6217 30.2649 99.9622 30.1863 100.067 30.1339C100.224 30.0292 100.329 29.9244 100.381 29.7673C100.434 29.5578 100.486 29.0602 100.486 28.3269V26.9127L100.512 25.7604L100.46 24.0582V23.0368C100.46 22.3559 100.407 21.806 100.303 21.3608C100.25 21.2036 100.119 21.0465 99.8836 20.8632C99.5693 20.6537 99.0717 20.4442 98.3385 20.2346L98.3123 19.449C98.4432 19.3966 98.5742 19.3704 98.7051 19.3704C98.8098 19.3442 99.2551 19.2395 100.015 19.0562C100.617 18.8466 101.01 18.6895 101.167 18.611C101.219 18.5848 101.298 18.5324 101.429 18.4538C101.56 18.3491 101.717 18.2443 101.874 18.1396C102.188 17.9039 102.581 17.511 103.052 16.9611L103.943 16.9087L103.917 18.7419C103.89 18.9252 103.89 19.0823 103.89 19.1871C103.89 19.2657 103.89 19.5275 103.917 19.9466C104.807 19.1609 105.645 18.611 106.378 18.3229C107.347 17.93 108.264 17.7205 109.128 17.7205C110.15 17.7205 111.04 17.9824 111.799 18.48C112.559 18.9776 113.083 19.5799 113.318 20.2346C113.554 20.8894 113.685 22.225 113.685 24.2415L113.633 29.5578C113.633 29.8197 113.685 30.003 113.764 30.1863C113.868 30.2649 114.183 30.3434 114.654 30.422L115.44 30.5791C115.544 30.7101 115.597 30.8934 115.597 31.1029C115.597 31.2339 115.597 31.4172 115.571 31.6267L112.376 31.391L111.433 31.4172H110.673L108.526 31.5743H107.923C107.923 31.4434 107.897 31.3386 107.897 31.2601C107.897 31.0767 107.897 30.8672 107.923 30.6577C108.081 30.6315 108.447 30.5792 109.076 30.5006C109.233 30.4744 109.416 30.4482 109.626 30.3958C109.835 30.3173 109.966 30.2125 109.992 30.1339C110.071 29.9506 110.123 29.584 110.123 29.0864C110.123 28.1698 110.123 27.4627 110.097 26.9913L110.123 25.1057C110.123 22.8011 109.966 21.3869 109.678 20.8108C109.259 19.9989 108.657 19.5799 107.819 19.5799C107.216 19.5799 106.588 19.7371 105.933 20.0513C105.278 20.3656 104.624 20.837 103.917 21.4655L103.89 21.7536L103.917 22.7749L103.89 23.8749L103.943 26.4675L103.917 26.8866C103.917 28.6674 103.995 29.6626 104.126 29.8721C104.257 30.1078 104.807 30.3435 105.75 30.6315C105.776 30.8148 105.802 30.9458 105.802 31.0505C105.802 31.1815 105.776 31.391 105.697 31.6529C105.357 31.6529 105.069 31.6791 104.859 31.6791C104.624 31.6791 104.283 31.6529 103.786 31.5743L102.031 31.5481C101.167 31.5481 99.9098 31.5743 98.2599 31.6529C98.2075 31.5481 98.2075 31.4434 98.2075 31.3124C98.2075 31.0505 98.2075 30.8934 98.2337 30.6315Z" fill="url(#paint3_linear_5325_1664)"/>
<path id="Vector_5" d="M120.284 18.9777C120.808 18.6111 121.332 18.3492 121.829 18.1921C122.327 18.0349 123.008 17.904 123.925 17.8254H124.841C126.02 17.8254 127.146 18.2444 128.246 19.0563L128.272 18.6635L128.246 17.5635L128.298 15.8089C128.298 13.9757 128.167 12.8234 127.879 12.3258C127.722 12.0377 127.434 11.8806 127.015 11.8544C126.596 11.8282 126.281 11.7497 126.02 11.6449V10.8592C126.229 10.8069 126.491 10.7545 126.805 10.7545C127.12 10.7545 127.774 10.6497 128.717 10.414L129.267 10.3093L130.891 9.94264C131.205 9.86408 131.414 9.83789 131.493 9.83789C131.545 9.83789 131.624 9.83788 131.755 9.86407C131.807 10.0998 131.86 10.2569 131.86 10.3617L131.833 10.5974V10.8854C131.833 11.1997 131.86 11.9854 131.886 13.321V14.2114L131.912 14.6828L131.886 15.4946L131.938 17.1969L131.912 18.1921C131.886 18.6373 131.886 19.3182 131.886 20.2348C131.886 20.3919 131.886 20.5228 131.912 20.6538V21.2561C131.912 21.4394 131.886 21.5704 131.886 21.649C131.886 21.8061 131.912 22.0418 131.938 22.356V23.2465L131.912 23.5869C131.886 23.9012 131.886 24.3464 131.886 24.8963C131.886 25.4725 131.886 25.9701 131.912 26.4153C131.912 26.5986 131.938 26.7557 131.938 26.9129V28.1437C131.938 28.5366 131.938 29.008 131.964 29.5317C132.148 29.6627 132.645 29.7412 133.405 29.7936C133.64 29.7936 133.85 29.8198 134.033 29.8722C134.086 30.0293 134.112 30.1603 134.112 30.2388C134.112 30.3436 134.086 30.4745 134.007 30.684C133.562 30.7888 133.091 30.8674 132.619 30.9197C131.126 31.1031 130.079 31.3649 129.45 31.7054C129.136 31.8887 128.927 31.9673 128.822 31.9673C128.691 31.9673 128.56 31.9673 128.403 31.9411C128.403 31.7316 128.429 31.6268 128.429 31.5744C128.429 30.8412 128.403 30.3436 128.377 30.1603C128.219 30.2388 128.01 30.3698 127.774 30.5007C127.041 30.9459 126.386 31.234 125.784 31.4173C125.182 31.6006 124.501 31.6792 123.741 31.6792C122.379 31.6792 121.279 31.4173 120.468 30.8935C119.263 30.1341 118.425 29.2175 117.98 28.1699C117.508 27.0962 117.299 25.9439 117.299 24.6606C117.246 22.3822 118.268 20.5228 120.284 18.9777ZM125.286 29.7151C125.522 29.7412 125.705 29.7412 125.862 29.7412C126.229 29.7412 126.596 29.6627 127.015 29.5055C127.434 29.3484 127.853 29.1389 128.298 28.8508C128.298 28.4842 128.324 28.2747 128.324 28.1961C128.324 24.7654 128.272 22.6703 128.167 21.9894C128.036 21.0466 127.669 20.3133 127.093 19.8158C126.517 19.3182 125.784 19.0563 124.972 19.0563C124.501 19.0563 124.029 19.1348 123.61 19.3182C123.191 19.5015 122.825 19.7372 122.563 20.0776C122.17 20.549 121.856 21.099 121.646 21.7013C121.358 22.5394 121.227 23.325 121.227 24.0845C121.227 25.8391 121.594 27.2009 122.353 28.1437C123.113 29.0342 124.082 29.5841 125.286 29.7151Z" fill="url(#paint4_linear_5325_1664)"/>
<path id="Vector_6" d="M148.175 21.6491C147.861 21.2301 147.573 20.9159 147.39 20.6802C149.354 19.2398 150.69 18.0875 151.344 17.1709C151.789 16.5947 151.999 15.9662 151.999 15.3115C151.999 14.6044 151.737 14.0021 151.239 13.5045C150.742 13.0069 150.166 12.745 149.537 12.745C148.202 12.745 146.997 13.5569 145.923 15.1806L144.902 14.6306C145.426 13.4783 145.923 12.6403 146.447 12.0641C146.945 11.488 147.678 11.0166 148.594 10.5976C149.302 10.2833 150.166 10.1523 151.239 10.1523C152.654 10.1523 153.754 10.519 154.539 11.2261C155.299 11.9332 155.692 12.8236 155.692 13.8973C155.692 14.7354 155.43 15.5472 154.906 16.3329C154.382 17.1185 153.439 17.9566 152.078 18.8732H152.418C153.885 18.8732 155.063 19.4231 155.98 20.5492C156.896 21.6753 157.368 22.88 157.368 24.2156C157.368 25.3417 157.106 26.494 156.582 27.7249C156.058 28.9296 155.115 29.9771 153.754 30.789C152.366 31.627 150.69 32.046 148.673 32.046C146.735 32.046 145.242 31.7056 144.221 31.0247C143.566 30.5795 143.252 30.0819 143.252 29.5057C143.252 29.0867 143.409 28.7463 143.723 28.432C144.038 28.1177 144.43 27.9868 144.928 27.9868C145.347 27.9868 145.714 28.0916 146.08 28.3011C146.421 28.5106 146.892 29.0082 147.494 29.7676C147.809 30.1604 148.097 30.3962 148.385 30.5271C148.883 30.7366 149.249 30.8414 149.485 30.8414C150.061 30.8414 150.663 30.658 151.292 30.2652C151.92 29.8724 152.418 29.2177 152.785 28.3272C153.151 27.4106 153.335 26.3631 153.335 25.1584C153.335 23.8752 153.02 22.8538 152.366 22.0944C151.711 21.3611 151.004 20.9683 150.244 20.9683C149.59 20.8897 148.935 21.1516 148.175 21.6491Z" fill="url(#paint5_linear_5325_1664)"/>
<path id="Vector_7" d="M164.884 20.7846C164.884 20.549 164.858 20.3656 164.858 20.2347C164.858 20.1037 164.858 19.9204 164.884 19.6847C164.962 19.6585 165.172 19.58 165.486 19.449C166.246 19.1086 166.979 18.9514 167.738 18.9514C169.231 18.9514 170.488 19.5014 171.483 20.6013C172.505 21.7012 173.002 23.2202 173.002 25.132C173.002 27.2009 172.374 28.8507 171.143 30.0816C169.912 31.3125 168.21 31.9148 166.036 31.9148C165.067 31.9148 164.203 31.7053 163.443 31.3125C162.684 30.9196 162.003 30.3435 161.427 29.6102C160.851 28.8769 160.379 28.1175 160.065 27.3318C159.568 26.0224 159.306 24.6344 159.306 23.1154C159.306 21.8322 159.515 20.4442 159.96 19.0038C160.406 17.5373 161.086 16.2802 161.977 15.1803C162.894 14.0804 163.915 13.1638 165.067 12.4567C166.219 11.7234 167.241 11.1996 168.105 10.8854C169.807 10.2568 171.091 9.96875 171.955 9.96875C172.112 9.96875 172.243 10.0211 172.348 10.1259C172.452 10.2306 172.479 10.414 172.479 10.6235C172.479 10.8592 172.452 11.0425 172.4 11.1996C172.164 11.3044 171.745 11.4091 171.143 11.5662C169.755 11.9067 168.55 12.4829 167.529 13.2947C166.508 14.1065 165.722 14.9184 165.224 15.7826C164.543 16.9611 164.072 18.2967 163.81 19.7633C163.548 21.2299 163.417 22.6964 163.417 24.1368C163.417 25.7605 163.522 27.0961 163.732 28.1437C163.941 29.1912 164.308 29.9245 164.805 30.3697C165.146 30.6578 165.643 30.7887 166.298 30.7887C166.665 30.7887 166.953 30.7363 167.162 30.6316C167.634 30.3959 167.974 30.134 168.184 29.8459C168.576 29.3221 168.812 28.6936 168.943 27.9865C169.074 27.2794 169.126 26.52 169.126 25.7343C169.126 23.7702 168.865 22.4083 168.315 21.6751C167.765 20.9418 167.084 20.5751 166.272 20.5751C165.958 20.4966 165.486 20.5751 164.884 20.7846Z" fill="url(#paint6_linear_5325_1664)"/>
<path id="Vector_8" d="M174.914 20.9682C174.914 19.7635 174.993 18.8469 175.124 18.166C175.438 16.5423 175.752 15.3638 176.066 14.6567C176.538 13.5306 177.114 12.614 177.742 11.9069C178.397 11.1998 179.13 10.676 179.968 10.3094C180.466 10.0999 181.121 9.99512 181.959 9.99512C182.98 9.99512 183.949 10.3356 184.918 11.0427C185.861 11.7498 186.725 12.9021 187.485 14.5258C188.244 16.1494 188.611 18.1922 188.611 20.6539C188.611 22.4609 188.401 24.1632 187.982 25.7607C187.72 26.7297 187.354 27.6201 186.856 28.4319C186.385 29.2438 185.966 29.8199 185.651 30.1342C185.101 30.6579 184.499 31.1032 183.871 31.4174C183.216 31.7317 182.692 31.8888 182.299 31.8888C181.121 31.8888 180.204 31.7841 179.602 31.5484C178.973 31.3127 178.397 30.8936 177.821 30.2913C177.245 29.689 176.747 28.9033 176.302 27.9605C175.857 27.0177 175.516 26.1011 175.333 25.2107C175.045 24.006 174.914 22.5919 174.914 20.9682ZM179.13 23.1156C179.13 25.4988 179.209 27.1225 179.366 27.9605C179.523 28.7986 179.811 29.4271 180.23 29.8461C180.649 30.2651 181.121 30.4746 181.592 30.4746C182.09 30.4746 182.509 30.3437 182.849 30.0818C183.19 29.8199 183.504 29.4009 183.74 28.8509C183.975 28.301 184.159 27.4106 184.263 26.2059C184.421 24.2417 184.499 22.8275 184.499 21.9895L184.447 19.842V17.5374C184.447 16.4637 184.368 15.4424 184.211 14.4996C184.054 13.5568 183.844 12.9021 183.609 12.483C183.347 12.064 183.059 11.8021 182.692 11.645C182.352 11.4879 182.011 11.4093 181.671 11.4093C181.278 11.4093 180.833 11.6188 180.361 12.0116C179.89 12.4045 179.549 13.1378 179.34 14.1853C179.13 15.2328 179.026 17.0399 179.026 19.5802L179.052 20.7325C179.104 21.8586 179.13 22.6442 179.13 23.1156Z" fill="url(#paint7_linear_5325_1664)"/>
<g id="Group">
<path id="Vector_9" d="M68.5355 5.30735C69.9759 4.88833 70.7877 3.36939 70.3425 1.92902C69.9235 0.488642 68.4045 -0.323204 66.9642 0.122003C65.5238 0.541021 64.712 2.05996 65.1572 3.50033C65.6024 4.91452 67.0951 5.72637 68.5355 5.30735Z" fill="url(#paint8_linear_5325_1664)"/>
<path id="Vector_10" d="M74.2968 3.89318C74.9515 3.68367 75.3182 3.00277 75.1349 2.34805C74.9254 1.69333 74.2445 1.32669 73.5897 1.51001C72.935 1.71952 72.5684 2.40042 72.7517 3.05514C72.9612 3.70985 73.6421 4.0765 74.2968 3.89318Z" fill="url(#paint9_linear_5325_1664)"/>
<path id="Vector_11" d="M72.3068 26.1274C67.1215 29.7938 61.36 33.0936 55.3628 35.6863C62.6694 37.5457 70.107 33.3031 72.3068 26.1274Z" fill="url(#paint10_linear_5325_1664)"/>
<path id="Vector_12" d="M86.8152 6.04052C85.0606 3.0812 76.654 5.12391 66.1786 9.96881C61.8836 7.34995 56.3055 7.08806 51.6439 9.83787C47.1132 12.5091 44.5991 17.3016 44.6777 22.1989C34.6737 29.0079 28.4146 35.3718 30.2478 38.462C32.6309 42.4689 47.4799 38.3573 62.8526 29.4793C78.2253 20.6276 89.2246 10.0474 86.8152 6.04052ZM47.2442 30.1079C45.8824 30.3697 44.9658 30.2912 44.6777 29.7936C44.3635 29.2698 44.7563 28.4056 45.7253 27.3057C46.1705 28.3532 46.668 29.2698 47.2442 30.1079ZM72.8567 20.6538C72.8043 20.2086 72.7519 19.7895 72.6734 19.3443C66.6762 24.2416 56.0436 30.0555 49.3917 32.5172C49.8107 32.8839 50.2297 33.2243 50.6749 33.5386C43.8135 36.0527 38.4186 36.5765 37.1092 34.4028C35.7998 32.2291 39.0995 28.3532 44.8348 24.0321C44.9396 24.6868 45.0705 25.3415 45.2539 25.9962C41.5613 28.9817 39.5186 31.4173 40.1471 32.4648C42.2422 35.9741 67.5142 22.6703 74.7161 15.128C76.4445 13.3209 77.3087 11.9853 76.8897 11.252C76.2874 10.2307 73.3019 10.7283 69.0855 12.3258C68.6665 11.8806 68.2213 11.4616 67.7499 11.0687C73.9304 8.63318 78.6706 7.89991 79.8752 9.94262C81.1323 12.0639 78.1992 16.2017 72.8567 20.6538ZM70.0283 13.4257C71.233 13.2424 72.0448 13.3733 72.3067 13.8185C72.5686 14.2637 72.2805 14.997 71.5472 15.9136C71.1544 15.0756 70.6568 14.2376 70.0283 13.4257Z" fill="url(#paint11_linear_5325_1664)"/>
</g>
</g>
<defs>
<linearGradient id="paint0_linear_5325_1664" x1="226.066" y1="110.291" x2="-153.823" y2="-44.4377" gradientUnits="userSpaceOnUse">
<stop stop-color="#0000FF"/>
<stop offset="1" stop-color="#00FFFF"/>
</linearGradient>
<linearGradient id="paint1_linear_5325_1664" x1="227.786" y1="106.068" x2="-152.104" y2="-48.6605" gradientUnits="userSpaceOnUse">
<stop stop-color="#0000FF"/>
<stop offset="1" stop-color="#00FFFF"/>
</linearGradient>
<linearGradient id="paint2_linear_5325_1664" x1="236.505" y1="84.66" x2="-143.384" y2="-70.0683" gradientUnits="userSpaceOnUse">
<stop stop-color="#0000FF"/>
<stop offset="1" stop-color="#00FFFF"/>
</linearGradient>
<linearGradient id="paint3_linear_5325_1664" x1="238.674" y1="79.3352" x2="-141.215" y2="-75.3932" gradientUnits="userSpaceOnUse">
<stop stop-color="#0000FF"/>
<stop offset="1" stop-color="#00FFFF"/>
</linearGradient>
<linearGradient id="paint4_linear_5325_1664" x1="243.259" y1="68.0782" x2="-136.63" y2="-86.6504" gradientUnits="userSpaceOnUse">
<stop stop-color="#0000FF"/>
<stop offset="1" stop-color="#00FFFF"/>
</linearGradient>
<linearGradient id="paint5_linear_5325_1664" x1="246.337" y1="60.5214" x2="-133.552" y2="-94.207" gradientUnits="userSpaceOnUse">
<stop stop-color="#0000FF"/>
<stop offset="1" stop-color="#00FFFF"/>
</linearGradient>
<linearGradient id="paint6_linear_5325_1664" x1="249.1" y1="53.737" x2="-130.789" y2="-100.992" gradientUnits="userSpaceOnUse">
<stop stop-color="#0000FF"/>
<stop offset="1" stop-color="#00FFFF"/>
</linearGradient>
<linearGradient id="paint7_linear_5325_1664" x1="250.955" y1="49.1826" x2="-128.934" y2="-105.546" gradientUnits="userSpaceOnUse">
<stop stop-color="#0000FF"/>
<stop offset="1" stop-color="#00FFFF"/>
</linearGradient>
<linearGradient id="paint8_linear_5325_1664" x1="102.568" y1="-33.5067" x2="1.2647" y2="71.8639" gradientUnits="userSpaceOnUse">
<stop stop-color="#E23800"/>
<stop offset="1" stop-color="#FF9718"/>
</linearGradient>
<linearGradient id="paint9_linear_5325_1664" x1="105.787" y1="-30.4123" x2="4.48311" y2="74.9582" gradientUnits="userSpaceOnUse">
<stop stop-color="#E23800"/>
<stop offset="1" stop-color="#FF9718"/>
</linearGradient>
<linearGradient id="paint10_linear_5325_1664" x1="115.18" y1="-21.3816" x2="13.8767" y2="83.9891" gradientUnits="userSpaceOnUse">
<stop stop-color="#E23800"/>
<stop offset="1" stop-color="#FF9718"/>
</linearGradient>
<linearGradient id="paint11_linear_5325_1664" x1="106.866" y1="-29.3748" x2="5.56275" y2="75.996" gradientUnits="userSpaceOnUse">
<stop stop-color="#E23800"/>
<stop offset="1" stop-color="#FF9718"/>
</linearGradient>
</defs>
</svg>
