<svg width="22" height="21" viewBox="0 0 22 21" fill="none" xmlns="http://www.w3.org/2000/svg">
<path d="M19.6427 6.03168L17.8957 4.51461C16.6371 3.42153 16.1437 2.83352 15.4621 3.04139C14.6122 3.30059 14.892 4.93609 14.892 5.48824C13.5706 5.48824 12.1968 5.38661 10.8943 5.59836C6.59453 6.29742 5.25 9.35663 5.25 12.6525C6.46697 11.9065 7.68274 11.0746 9.1454 10.7289C10.9712 10.2973 13.0103 10.5032 14.892 10.5032C14.892 11.0554 14.6122 12.6909 15.4621 12.9501C16.2344 13.1856 16.6371 12.5699 17.8957 11.4769L19.6427 9.95981C20.7142 9.02926 21.25 8.56398 21.25 7.99574C21.25 7.4275 20.7142 6.96223 19.6427 6.03168Z" stroke="#49556D" stroke-width="1.5" stroke-linecap="round" stroke-linejoin="round"/>
<path d="M9.81758 1C5.95735 1.00694 3.93594 1.10152 2.64411 2.39073C1.25 3.78202 1.25 6.02125 1.25 10.4997C1.25 14.9782 1.25 17.2174 2.6441 18.6087C4.03821 20 6.28198 20 10.7695 20C15.2571 20 17.5009 20 18.895 18.6087C19.8656 17.64 20.1604 16.2603 20.25 14" stroke="#49556D" stroke-width="1.5" stroke-linecap="round" stroke-linejoin="round"/>
</svg>
