<svg width="21" height="20" viewBox="0 0 21 20" fill="none" xmlns="http://www.w3.org/2000/svg">
<g id="Bold / Like / Star">
<path id="Vector" d="M7.96097 4.50731C9.01651 2.61376 9.54428 1.66699 10.3333 1.66699C11.1224 1.66699 11.6502 2.61376 12.7057 4.5073L12.9788 4.99719C13.2787 5.53527 13.4287 5.80431 13.6625 5.98183C13.8964 6.15935 14.1876 6.22524 14.7701 6.35703L15.3004 6.47702C17.3501 6.94079 18.375 7.17267 18.6188 7.95677C18.8626 8.74086 18.164 9.55788 16.7666 11.1919L16.4051 11.6147C16.008 12.079 15.8094 12.3112 15.7201 12.5984C15.6308 12.8857 15.6608 13.1954 15.7208 13.815L15.7755 14.379C15.9868 16.5592 16.0924 17.6492 15.454 18.1338C14.8157 18.6184 13.8561 18.1766 11.9369 17.293L11.4404 17.0644C10.8951 16.8133 10.6224 16.6877 10.3333 16.6877C10.0443 16.6877 9.77161 16.8133 9.22624 17.0644L8.72973 17.293C6.81056 18.1766 5.85098 18.6184 5.21262 18.1338C4.57427 17.6492 4.6799 16.5592 4.89116 14.379L4.94582 13.815C5.00585 13.1954 5.03587 12.8857 4.94655 12.5984C4.85723 12.3112 4.65869 12.079 4.2616 11.6147L3.90008 11.1919C2.50271 9.55789 1.80402 8.74086 2.04785 7.95677C2.29168 7.17267 3.31655 6.94079 5.36628 6.47702L5.89657 6.35703C6.47904 6.22524 6.77028 6.15935 7.00412 5.98183C7.23796 5.80431 7.38794 5.53527 7.68789 4.99719L7.96097 4.50731Z" fill="#A7B6CC"/>
</g>
</svg>
