<svg width="24" height="24" viewBox="0 0 24 24" fill="none" xmlns="http://www.w3.org/2000/svg">
<g id="UI icon/edit/filled">
<g id="Vector">
<path d="M3.98573 21.2012L9.28903 20.1405C9.48262 20.1018 9.66043 20.0066 9.80003 19.867L16.4498 13.2172C16.8403 12.8266 16.8403 12.1935 16.4498 11.803L12.2072 7.56031C11.8167 7.16979 11.1835 7.16979 10.793 7.56032L4.14317 14.2102C4.00357 14.3498 3.90842 14.5276 3.8697 14.7212L2.80904 20.0245C2.66909 20.7242 3.28601 21.3411 3.98573 21.2012Z" fill="white"/>
<path d="M20.1925 5.23186L18.7783 3.81764C17.6068 2.64607 15.7073 2.64607 14.5357 3.81764L13.5504 4.80293C13.1599 5.19345 13.1599 5.82662 13.5504 6.21714L17.793 10.4598C18.1836 10.8503 18.8167 10.8503 19.2073 10.4598L20.1925 9.4745C21.3641 8.30293 21.3641 6.40343 20.1925 5.23186Z" fill="white"/>
</g>
</g>
</svg>
