<svg width="48" height="48" viewBox="0 0 48 48" fill="none" xmlns="http://www.w3.org/2000/svg">
<g clip-path="url(#clip0_5033_72699)">
<path d="M42.7346 47.965H5.26903C4.28747 47.965 3.49219 47.1696 3.49219 46.1881V17.5391H44.5118V46.1881C44.5118 47.1696 43.716 47.965 42.7346 47.965Z" fill="#FFC73B"/>
<path d="M3.49219 17.5391H44.5118V23.5006H3.49219V17.5391Z" fill="#EFB025"/>
<path d="M48 11.3262V18.712C48 19.5009 47.3599 20.1398 46.5711 20.1398H1.42781C0.639 20.1398 0 19.5009 0 18.712V11.3263C0 10.5374 0.639 9.89844 1.42781 9.89844H46.5711C47.3599 9.89844 48 10.5374 48 11.3262Z" fill="#FFC73B"/>
<path d="M22.3667 13.2926C22.0552 13.6551 21.7499 14.0228 21.4507 14.3955C20.3422 15.7753 19.3233 17.2246 18.4002 18.7348C18.1175 19.1974 17.8436 19.6654 17.5787 20.1385H7.84375C8.41275 18.8476 9.03599 17.5814 9.71181 16.3431C10.9404 14.0906 12.3398 11.9356 13.8977 9.89703C14.271 9.40826 14.6532 8.92636 15.0442 8.45159C15.2786 8.16519 15.517 7.88281 15.7587 7.60156L18.4236 9.89703C18.5613 10.015 18.6991 10.1343 18.8364 10.2526C19.8852 11.1557 20.9341 12.0583 21.9825 12.9626C22.111 13.0717 22.2384 13.1827 22.3667 13.2926ZM36.8916 20.1385H27.156C26.8915 19.6651 26.6176 19.1972 26.3345 18.7348C25.4111 17.2249 24.3921 15.7755 23.2839 14.3955C22.9841 14.0229 22.6783 13.6552 22.3667 13.2925C22.4951 13.1827 22.6226 13.0724 22.7511 12.9626C23.8008 12.0583 24.8495 11.1546 25.898 10.2526C26.0357 10.1343 26.1734 10.015 26.3111 9.89703C27.1996 9.13166 28.0883 8.36703 28.976 7.60156C29.2176 7.88178 29.4557 8.16489 29.6904 8.45084C30.0818 8.92556 30.4641 9.40771 30.8371 9.89703C32.3949 11.9358 33.7946 14.0908 35.0237 16.3431C35.6994 17.5814 36.3227 18.8476 36.8916 20.1385Z" fill="#EFB025"/>
<path d="M23.9963 13.2928C23.6846 13.6551 23.3792 14.0227 23.0801 14.3955C21.9716 15.7754 20.9526 17.225 20.0295 18.7352C17.0963 23.5298 15.1639 28.8686 14.3489 34.4299C13.1188 32.7984 11.9836 31.0332 10.9622 29.1458C9.16556 30.3177 7.40953 31.658 5.71875 33.1661C6.58315 27.2699 8.48694 21.5739 11.3416 16.343C12.8651 13.5497 14.6505 10.9073 16.6736 8.45159C16.9084 8.16547 17.1466 7.88211 17.388 7.60156C18.4142 8.48525 19.4396 9.36894 20.4661 10.2526C21.5146 11.1556 22.5634 12.0583 23.6123 12.9626C23.7404 13.0717 23.8678 13.1827 23.9963 13.2928ZM42.2746 33.166C40.5839 31.658 38.8279 30.3177 37.0313 29.1458C36.0099 31.0332 34.8746 32.7983 33.6445 34.4298C32.8296 28.8685 30.8973 23.5297 27.9638 18.7351C27.0405 17.2251 26.0216 15.7756 24.9133 14.3955C24.6136 14.0231 24.308 13.6555 23.9964 13.2928C24.1245 13.1827 24.252 13.0724 24.3805 12.9626C25.4301 12.0583 26.4789 11.1546 27.5277 10.2526C28.5538 9.36781 29.5804 8.48525 30.6053 7.60156C30.8469 7.88178 31.0851 8.16489 31.3198 8.45084C33.3434 10.9068 35.1291 13.5494 36.653 16.343C39.507 21.5741 41.4103 27.2701 42.2747 33.1661L42.2746 33.166Z" fill="#FF4440"/>
<path d="M20.1719 13.2891H27.8151V20.1343H20.1719V13.2891Z" fill="#FF4440"/>
<path d="M36.6566 16.3454L27.9676 18.7375C27.0442 17.2275 26.0253 15.778 24.917 14.3979L24.3842 12.9649L24 11.9314L27.5314 10.255L31.3236 8.45312C33.3471 10.9091 35.1328 13.5517 36.6566 16.3454Z" fill="#EA2F2F"/>
<path d="M23.9985 11.9306L23.6144 12.9641L23.0823 14.3971C21.9738 15.777 20.9548 17.2265 20.0317 18.7367L11.3438 16.3445C12.8673 13.5512 14.6526 10.9089 16.6758 8.45312L20.4682 10.2541L23.9985 11.9306Z" fill="#EA2F2F"/>
<path d="M37.8632 0.332096L23.9959 6.91766L26.6597 14.0818L41.4612 10.0078C43.397 9.47488 44.4605 7.39738 43.7606 5.51544L42.5391 2.23053C41.8395 0.348596 39.6771 -0.529279 37.8632 0.332096ZM10.1286 0.332096L23.9959 6.91766L21.3321 14.0818L6.5309 10.0078C4.59515 9.47488 3.53165 7.39738 4.23149 5.51544L5.45277 2.23053C6.15261 0.348596 8.31468 -0.529279 10.1286 0.332096Z" fill="#FF4440"/>
<path d="M27.3109 9.79766C27.1824 9.79787 27.056 9.76566 26.9434 9.70401C26.8307 9.64235 26.7354 9.55326 26.6663 9.44497C26.6123 9.36045 26.5753 9.2661 26.5577 9.16731C26.5401 9.06853 26.5421 8.96723 26.5636 8.86922C26.5852 8.77121 26.6258 8.6784 26.6832 8.59609C26.7406 8.51379 26.8137 8.4436 26.8982 8.38953C27.0033 8.32259 29.5009 6.73316 32.3683 5.57338C36.502 3.90125 39.2626 3.99097 40.5722 5.84C40.6303 5.92191 40.6716 6.01446 40.6939 6.11236C40.7162 6.21026 40.7189 6.31159 40.702 6.41056C40.6851 6.50953 40.6489 6.6042 40.5954 6.68915C40.5418 6.7741 40.4721 6.84767 40.3901 6.90566C40.3082 6.96367 40.2157 7.00498 40.1179 7.02724C40.02 7.04949 39.9187 7.05224 39.8198 7.03535C39.7209 7.01845 39.6262 6.98223 39.5413 6.92875C39.4564 6.87528 39.3828 6.8056 39.3248 6.72369C37.5494 4.21737 30.1677 8.11456 27.7218 9.67756C27.5991 9.75606 27.4565 9.79773 27.3109 9.79766ZM20.6129 9.79766C20.4673 9.79773 20.3247 9.75606 20.202 9.67756C17.7561 8.11456 10.3744 4.21737 8.59904 6.72359C8.48184 6.88905 8.30371 7.00117 8.10385 7.03529C7.90398 7.06942 7.69875 7.02275 7.53329 6.90556C7.3679 6.78832 7.25586 6.61019 7.2218 6.41034C7.18775 6.21049 7.23447 6.00531 7.35169 5.83991C8.66129 3.99097 11.4214 3.90116 15.5556 5.57328C18.423 6.73278 20.9205 8.3225 21.0256 8.38953C21.1963 8.49873 21.3166 8.67124 21.3602 8.86913C21.4037 9.06703 21.3669 9.27411 21.2578 9.44487C21.1886 9.55311 21.0932 9.64216 20.9805 9.70381C20.8678 9.76545 20.7414 9.79779 20.6129 9.79766Z" fill="#EA2F2F"/>
<path d="M26.1762 4.45312H21.8271C20.6368 4.45312 19.6719 5.41809 19.6719 6.60872V12.9269C19.6719 14.1175 20.6368 15.0824 21.8271 15.0824H26.1762C27.3664 15.0824 28.3314 14.1174 28.3314 12.9269V6.60872C28.3314 5.41809 27.3664 4.45312 26.1762 4.45312Z" fill="#EA2F2F"/>
<path d="M20.1797 20.1406H27.8229V47.9679H20.1797V20.1406Z" fill="#FF4440"/>
<path d="M20.1797 20.1406H27.8229V23.5035H20.1797V20.1406Z" fill="#EA2F2F"/>
</g>
<defs>
<clipPath id="clip0_5033_72699">
<rect width="48" height="48" fill="white"/>
</clipPath>
</defs>
</svg>
