<svg width="12" height="12" viewBox="0 0 12 12" fill="none" xmlns="http://www.w3.org/2000/svg">
<g id="Icon/CurrencyCircleDollar">
<g id="Vector">
<path fill-rule="evenodd" clip-rule="evenodd" d="M6 3C6.20711 3 6.375 3.16789 6.375 3.375V4.125C6.375 4.33211 6.20711 4.5 6 4.5C5.79289 4.5 5.625 4.33211 5.625 4.125V3.375C5.625 3.16789 5.79289 3 6 3Z" fill="#A5A5AB"/>
<path fill-rule="evenodd" clip-rule="evenodd" d="M6 7.5C6.20711 7.5 6.375 7.66789 6.375 7.875V8.625C6.375 8.83211 6.20711 9 6 9C5.79289 9 5.625 8.83211 5.625 8.625V7.875C5.625 7.66789 5.79289 7.5 6 7.5Z" fill="#A5A5AB"/>
<path fill-rule="evenodd" clip-rule="evenodd" d="M6 1.875C3.72183 1.875 1.875 3.72183 1.875 6C1.875 8.27817 3.72183 10.125 6 10.125C8.27817 10.125 10.125 8.27817 10.125 6C10.125 3.72183 8.27817 1.875 6 1.875ZM1.125 6C1.125 3.30761 3.30761 1.125 6 1.125C8.69239 1.125 10.875 3.30761 10.875 6C10.875 8.69239 8.69239 10.875 6 10.875C3.30761 10.875 1.125 8.69239 1.125 6Z" fill="#A5A5AB"/>
<path fill-rule="evenodd" clip-rule="evenodd" d="M5.4375 4.5C5.28832 4.5 5.14524 4.55926 5.03975 4.66475C4.93426 4.77024 4.875 4.91332 4.875 5.0625C4.875 5.21168 4.93426 5.35476 5.03975 5.46025C5.14524 5.56574 5.28832 5.625 5.4375 5.625H6.5625C6.9106 5.625 7.24444 5.76328 7.49058 6.00942C7.73672 6.25556 7.875 6.5894 7.875 6.9375C7.875 7.2856 7.73672 7.61944 7.49058 7.86558C7.24444 8.11172 6.9106 8.25 6.5625 8.25H4.875C4.66789 8.25 4.5 8.08211 4.5 7.875C4.5 7.66789 4.66789 7.5 4.875 7.5H6.5625C6.71168 7.5 6.85476 7.44074 6.96025 7.33525C7.06574 7.22976 7.125 7.08668 7.125 6.9375C7.125 6.78832 7.06574 6.64524 6.96025 6.53975C6.85476 6.43426 6.71168 6.375 6.5625 6.375H5.4375C5.0894 6.375 4.75556 6.23672 4.50942 5.99058C4.26328 5.74444 4.125 5.4106 4.125 5.0625C4.125 4.7144 4.26328 4.38056 4.50942 4.13442C4.75556 3.88828 5.0894 3.75 5.4375 3.75H7.125C7.33211 3.75 7.5 3.91789 7.5 4.125C7.5 4.33211 7.33211 4.5 7.125 4.5H5.4375Z" fill="#A5A5AB"/>
</g>
</g>
</svg>
