<svg width="12" height="12" viewBox="0 0 12 12" fill="none" xmlns="http://www.w3.org/2000/svg">
<g id="Icon/Hourglass">
<path id="Vector" d="M9.375 3.54562V1.875C9.375 1.67609 9.29598 1.48532 9.15533 1.34467C9.01468 1.20402 8.82391 1.125 8.625 1.125H3.375C3.17609 1.125 2.98532 1.20402 2.84467 1.34467C2.70402 1.48532 2.625 1.67609 2.625 1.875V3.5625C2.62525 3.67889 2.65247 3.79364 2.70452 3.89774C2.75658 4.00184 2.83204 4.09246 2.925 4.1625L5.37516 6L2.925 7.8375C2.83204 7.90754 2.75658 7.99816 2.70452 8.10226C2.65247 8.20636 2.62525 8.32111 2.625 8.4375V10.125C2.625 10.3239 2.70402 10.5147 2.84467 10.6553C2.98532 10.796 3.17609 10.875 3.375 10.875H8.625C8.82391 10.875 9.01468 10.796 9.15533 10.6553C9.29598 10.5147 9.375 10.3239 9.375 10.125V8.45438C9.37473 8.33843 9.34774 8.22411 9.29612 8.1203C9.24449 8.01648 9.16963 7.92597 9.07734 7.85578L6.62203 6L9.07734 4.14375C9.16967 4.07371 9.24457 3.98329 9.29621 3.87954C9.34784 3.77579 9.3748 3.66151 9.375 3.54562ZM8.625 10.125H3.375V8.4375L6 6.46875L8.625 8.45391V10.125ZM8.625 3.54562L6 5.53125L3.375 3.5625V1.875H8.625V3.54562Z" fill="#A5A5AB"/>
</g>
</svg>
