<svg width="12" height="12" viewBox="0 0 12 12" fill="none" xmlns="http://www.w3.org/2000/svg">
<g id="Icon/MapPinArea">
<path id="Vector" d="M5.25 3.75C5.25 3.60166 5.29399 3.45666 5.3764 3.33332C5.45881 3.20999 5.57594 3.11386 5.71299 3.05709C5.85003 3.00032 6.00083 2.98547 6.14632 3.01441C6.2918 3.04335 6.42544 3.11478 6.53033 3.21967C6.63522 3.32456 6.70665 3.4582 6.73559 3.60368C6.76453 3.74917 6.74968 3.89997 6.69291 4.03701C6.63614 4.17406 6.54001 4.29119 6.41668 4.3736C6.29334 4.45601 6.14834 4.5 6 4.5C5.80109 4.5 5.61032 4.42098 5.46967 4.28033C5.32902 4.13968 5.25 3.94891 5.25 3.75ZM3 3.75C3 2.95435 3.31607 2.19129 3.87868 1.62868C4.44129 1.06607 5.20435 0.75 6 0.75C6.79565 0.75 7.55871 1.06607 8.12132 1.62868C8.68393 2.19129 9 2.95435 9 3.75C9 6.56016 6.30094 8.13469 6.1875 8.20078C6.13083 8.23317 6.06668 8.25021 6.00141 8.25021C5.93613 8.25021 5.87198 8.23317 5.81531 8.20078C5.69906 8.13469 3 6.5625 3 3.75ZM3.75 3.75C3.75 5.72813 5.43 7.04109 6 7.42969C6.56953 7.04156 8.25 5.72813 8.25 3.75C8.25 3.15326 8.01295 2.58097 7.59099 2.15901C7.16903 1.73705 6.59674 1.5 6 1.5C5.40326 1.5 4.83097 1.73705 4.40901 2.15901C3.98705 2.58097 3.75 3.15326 3.75 3.75ZM9.50484 6.92016C9.41255 6.88967 9.31202 6.8962 9.22445 6.93839C9.13688 6.98058 9.06911 7.05512 9.03543 7.14631C9.00176 7.23749 9.0048 7.33819 9.04393 7.42717C9.08305 7.51615 9.1552 7.58646 9.24516 7.62328C10.0191 7.90969 10.5 8.29313 10.5 8.625C10.5 9.25125 8.78813 10.125 6 10.125C3.21187 10.125 1.5 9.25125 1.5 8.625C1.5 8.29313 1.98094 7.90969 2.75484 7.62375C2.8448 7.58693 2.91695 7.51662 2.95607 7.42763C2.9952 7.33865 2.99824 7.23796 2.96456 7.14677C2.93089 7.05559 2.86312 6.98105 2.77555 6.93886C2.68798 6.89667 2.58745 6.89013 2.49516 6.92062C1.36969 7.33547 0.75 7.94109 0.75 8.625C0.75 10.0866 3.45516 10.875 6 10.875C8.54484 10.875 11.25 10.0866 11.25 8.625C11.25 7.94109 10.6303 7.33547 9.50484 6.92016Z" fill="#A5A5AB"/>
</g>
</svg>
