<svg width="12" height="12" viewBox="0 0 12 12" fill="none" xmlns="http://www.w3.org/2000/svg">
<g id="Icon/Users">
<path id="Vector" d="M5.49606 7.40254C5.99865 7.06794 6.38023 6.58049 6.58435 6.01225C6.78848 5.44402 6.80433 4.82518 6.62955 4.24725C6.45476 3.66931 6.09863 3.16297 5.61382 2.80309C5.12901 2.44321 4.54125 2.2489 3.93746 2.2489C3.33368 2.2489 2.74592 2.44321 2.26111 2.80309C1.77629 3.16297 1.42016 3.66931 1.24538 4.24725C1.0706 4.82518 1.08644 5.44402 1.29057 6.01225C1.4947 6.58049 1.87627 7.06794 2.37887 7.40254C1.46972 7.73762 0.693293 8.35768 0.165431 9.1702C0.137688 9.21143 0.118418 9.25777 0.108741 9.30651C0.0990636 9.35526 0.0991719 9.40544 0.10906 9.45415C0.118947 9.50285 0.138417 9.5491 0.166338 9.59021C0.194258 9.63133 0.230072 9.66648 0.271698 9.69363C0.313323 9.72078 0.35993 9.73939 0.40881 9.74836C0.457689 9.75734 0.507866 9.75652 0.556423 9.74593C0.60498 9.73535 0.650949 9.71522 0.691658 9.68672C0.732367 9.65821 0.767004 9.6219 0.793556 9.57989C1.13405 9.05619 1.59997 8.62585 2.14901 8.32794C2.69805 8.03003 3.31281 7.87399 3.93746 7.87399C4.56212 7.87399 5.17688 8.03003 5.72591 8.32794C6.27495 8.62585 6.74087 9.05619 7.08137 9.57989C7.13637 9.66163 7.22133 9.71845 7.31789 9.73805C7.41445 9.75766 7.51484 9.73847 7.59737 9.68464C7.67989 9.63082 7.73792 9.54668 7.7589 9.45041C7.77988 9.35414 7.76213 9.25349 7.70949 9.1702C7.18163 8.35768 6.4052 7.73762 5.49606 7.40254ZM1.87496 5.06254C1.87496 4.65462 1.99593 4.25586 2.22256 3.91668C2.44919 3.5775 2.7713 3.31315 3.14818 3.15704C3.52505 3.00094 3.93975 2.96009 4.33984 3.03967C4.73992 3.11926 5.10742 3.31569 5.39587 3.60413C5.68432 3.89258 5.88075 4.26008 5.96033 4.66017C6.03991 5.06025 5.99907 5.47495 5.84296 5.85183C5.68686 6.2287 5.4225 6.55082 5.08333 6.77745C4.74415 7.00408 4.34539 7.12504 3.93746 7.12504C3.39064 7.12442 2.8664 6.90692 2.47974 6.52027C2.09308 6.13361 1.87558 5.60936 1.87496 5.06254ZM11.7253 9.6891C11.642 9.74342 11.5405 9.76243 11.4432 9.74195C11.3459 9.72147 11.2607 9.66317 11.2064 9.57989C10.8663 9.05588 10.4004 8.62535 9.85127 8.32756C9.30212 8.02978 8.68716 7.87421 8.06246 7.87504C7.96301 7.87504 7.86762 7.83553 7.7973 7.76521C7.72697 7.69488 7.68746 7.5995 7.68746 7.50004C7.68746 7.40059 7.72697 7.3052 7.7973 7.23488C7.86762 7.16455 7.96301 7.12504 8.06246 7.12504C8.3662 7.12476 8.66612 7.05739 8.9408 6.92775C9.21548 6.79812 9.45814 6.60941 9.65144 6.37512C9.84474 6.14084 9.98391 5.86675 10.059 5.57244C10.1341 5.27813 10.1432 4.97087 10.0858 4.67261C10.0284 4.37435 9.90581 4.09246 9.72681 3.84707C9.54781 3.60168 9.31683 3.39886 9.05036 3.25309C8.78389 3.10732 8.48851 3.0222 8.18533 3.00382C7.88215 2.98544 7.57865 3.03425 7.29653 3.14676C7.25052 3.16665 7.20101 3.17711 7.15089 3.17753C7.10078 3.17796 7.05109 3.16833 7.00476 3.14923C6.95843 3.13012 6.9164 3.10192 6.88115 3.0663C6.84591 3.03068 6.81816 2.98835 6.79955 2.94182C6.78093 2.89529 6.77184 2.8455 6.77279 2.7954C6.77375 2.74529 6.78474 2.69588 6.80511 2.6501C6.82548 2.60431 6.85483 2.56307 6.89141 2.52882C6.92799 2.49457 6.97106 2.46799 7.01809 2.45067C7.66377 2.19316 8.38194 2.18389 9.03406 2.42466C9.68617 2.66542 10.226 3.13915 10.5495 3.75446C10.8729 4.36977 10.957 5.08306 10.7856 5.75672C10.6141 6.43039 10.1993 7.0167 9.62106 7.40254C10.5302 7.73762 11.3066 8.35768 11.8345 9.1702C11.8888 9.2535 11.9078 9.35496 11.8873 9.45227C11.8669 9.54958 11.8086 9.63477 11.7253 9.6891Z" fill="#A5A5AB"/>
</g>
</svg>
