<svg width="25" height="24" viewBox="0 0 25 24" fill="none" xmlns="http://www.w3.org/2000/svg">
<path d="M9.04824 8.85335C9.74424 10.303 10.693 11.6616 11.8946 12.8632C13.0962 14.0648 14.4548 15.0136 15.9044 15.7096C16.0291 15.7694 16.0915 15.7994 16.1704 15.8224C16.4507 15.9041 16.795 15.8454 17.0324 15.6754C17.0992 15.6275 17.1564 15.5704 17.2707 15.4561C17.6203 15.1064 17.7951 14.9316 17.9709 14.8174C18.6338 14.3864 19.4884 14.3864 20.1512 14.8174C20.327 14.9316 20.5018 15.1064 20.8514 15.4561L21.0463 15.6509C21.5777 16.1824 21.8435 16.4481 21.9878 16.7335C22.2749 17.301 22.2749 17.9713 21.9878 18.5389C21.8435 18.8242 21.5777 19.09 21.0463 19.6214L20.8887 19.779C20.359 20.3087 20.0942 20.5735 19.7342 20.7757C19.3347 21.0001 18.7142 21.1615 18.256 21.1601C17.843 21.1589 17.5608 21.0788 16.9964 20.9186C13.963 20.0576 11.1006 18.4332 8.71263 16.0452C6.32465 13.6572 4.70017 10.7948 3.8392 7.76144C3.679 7.19699 3.59889 6.91477 3.59766 6.50182C3.5963 6.0436 3.75766 5.42311 3.98208 5.0236C4.18433 4.66357 4.44914 4.39876 4.97877 3.86913L5.1364 3.7115C5.66784 3.18006 5.93356 2.91433 6.21894 2.76999C6.78651 2.48292 7.45677 2.48292 8.02433 2.76999C8.30971 2.91433 8.57543 3.18006 9.10688 3.7115L9.30175 3.90637C9.65135 4.25597 9.82616 4.43078 9.94044 4.60655C10.3714 5.26945 10.3714 6.12403 9.94044 6.78692C9.82616 6.96269 9.65135 7.1375 9.30175 7.4871C9.18743 7.60142 9.13028 7.65857 9.08244 7.72538C8.91243 7.96281 8.85372 8.30707 8.93545 8.58743C8.95845 8.66632 8.98838 8.72866 9.04824 8.85335Z" stroke="#0E457D" stroke-width="2" stroke-linecap="round" stroke-linejoin="round"/>
</svg>
