<svg width="25" height="24" viewBox="0 0 25 24" fill="none" xmlns="http://www.w3.org/2000/svg">
<path d="M2.33398 7L10.4989 12.7154C11.1601 13.1783 11.4907 13.4097 11.8502 13.4993C12.1679 13.5785 12.5001 13.5785 12.8177 13.4993C13.1773 13.4097 13.5079 13.1783 14.1691 12.7154L22.334 7M7.13398 20H17.534C19.2141 20 20.0542 20 20.696 19.673C21.2604 19.3854 21.7194 18.9265 22.007 18.362C22.334 17.7202 22.334 16.8802 22.334 15.2V8.8C22.334 7.11984 22.334 6.27976 22.007 5.63803C21.7194 5.07354 21.2604 4.6146 20.696 4.32698C20.0542 4 19.2141 4 17.534 4H7.13398C5.45383 4 4.61375 4 3.97201 4.32698C3.40753 4.6146 2.94858 5.07354 2.66096 5.63803C2.33398 6.27976 2.33398 7.11984 2.33398 8.8V15.2C2.33398 16.8802 2.33398 17.7202 2.66096 18.362C2.94858 18.9265 3.40753 19.3854 3.97201 19.673C4.61375 20 5.45383 20 7.13398 20Z" stroke="#0E457D" stroke-width="2" stroke-linecap="round" stroke-linejoin="round"/>
</svg>
