<svg width="20" height="20" viewBox="0 0 20 20" fill="none" xmlns="http://www.w3.org/2000/svg">
<g id="ri:instagram-fill">
<path id="Vector" d="M11.2515 1.87602L11.2488 1.87603L9.53544 1.87519L9.53423 1.87519C8.93226 1.87374 8.33029 1.88061 7.72851 1.89582C7.72846 1.89582 7.7284 1.89582 7.72835 1.89582C7.7283 1.89582 7.72825 1.89582 7.7282 1.89583L7.57195 1.89985L6.98672 1.9245C6.98622 1.92453 6.98573 1.92455 6.98523 1.92457C6.15712 1.96358 5.62068 2.09208 5.15972 2.27054L5.15464 2.27251L5.15463 2.27248C4.6839 2.45002 4.2576 2.72819 3.90553 3.08757L3.89601 3.09729L3.89591 3.09718C3.5362 3.44872 3.25791 3.87482 3.08063 4.34549L3.07861 4.35085L3.07859 4.35084C2.90006 4.81197 2.77153 5.34864 2.73258 6.17727C2.72257 6.39925 2.71438 6.5811 2.70784 6.76417L2.70783 6.7644L2.70214 6.92226C2.68779 7.52289 2.68177 8.12368 2.68407 8.72447L2.68408 8.72686L2.68407 10.4402V10.4417C2.68261 11.044 2.68949 11.6462 2.7047 12.2483C2.7047 12.2483 2.7047 12.2484 2.7047 12.2484C2.70471 12.2485 2.70471 12.2485 2.70471 12.2486L2.70877 12.4063C2.71605 12.6009 2.72426 12.7955 2.73339 12.99L11.2515 1.87602ZM11.2515 1.87602C11.8525 1.87371 12.4536 1.87974 13.0545 1.89409L13.2124 1.89979L13.2126 1.89979C13.3906 1.90615 13.5666 1.91406 13.7812 1.92371L13.7989 1.9245C13.7991 1.92451 13.7993 1.92452 13.7995 1.92453C14.6275 1.96349 15.1648 2.09205 15.6248 2.27042L15.6263 2.27099C16.0984 2.45269 16.4867 2.69252 16.8855 3.0913L16.8855 3.09132L16.8893 3.09513C17.2482 3.44784 17.526 3.8745 17.7033 4.34544L17.7033 4.34545L17.7055 4.35115C17.8839 4.81111 18.0125 5.34933 18.0514 6.17754C18.0614 6.39883 18.0696 6.58027 18.0761 6.76281C18.0761 6.76326 18.0761 6.76372 18.0761 6.76417L18.0809 6.91875C18.0809 6.91937 18.081 6.91998 18.081 6.9206C18.0956 7.52187 18.1019 8.12332 18.0999 8.72478L18.0999 8.7277L18.1007 9.34853V9.34936L18.1007 10.4402L18.1007 10.4423C18.1028 11.044 18.0965 11.6458 18.0818 12.2474C18.0818 12.2479 18.0818 12.2485 18.0818 12.2491L18.077 12.4037C18.077 12.4042 18.0769 12.4047 18.0769 12.4051C18.0706 12.5828 18.0627 12.7586 18.053 12.9728L18.0523 12.99C18.0523 12.9902 18.0523 12.9903 18.0522 12.9904C18.0134 13.8173 17.8834 14.3552 17.7052 14.8167L17.7052 14.8167L17.703 14.8225C17.5264 15.2935 17.2488 15.7201 16.8897 16.0724L16.8897 16.0723L16.8819 16.0802C16.5287 16.4392 16.1018 16.717 15.6305 16.8944L15.6305 16.8944L15.6248 16.8966C15.1647 17.075 14.6272 17.2036 13.7989 17.2425L13.7826 17.2433C13.5679 17.2529 13.3919 17.2608 13.214 17.2672C13.2135 17.2672 13.2131 17.2672 13.2126 17.2673L13.058 17.272C13.0574 17.2721 13.0568 17.2721 13.0562 17.2721C12.4546 17.2867 11.8529 17.293 11.2512 17.291L11.2482 17.291L10.6274 17.2919H10.6266L9.53657 17.2919L9.53446 17.2919C8.93272 17.2939 8.33098 17.2876 7.72942 17.2729C7.72883 17.2729 7.72824 17.2729 7.72765 17.2729M11.2515 1.87602L7.72765 17.2729M7.72765 17.2729L7.57338 17.2681C7.5729 17.2681 7.57241 17.2681 7.57193 17.2681C7.37703 17.261 7.18218 17.2528 6.98739 17.2434L6.98675 17.2434C6.15968 17.2045 5.62153 17.0746 5.15893 16.8962L5.15894 16.8962L5.15384 16.8943C4.68304 16.7174 4.25659 16.4398 3.90436 16.0808L3.90444 16.0807L3.89612 16.0726C3.53685 15.7198 3.25886 15.2929 3.08152 14.8217L3.08155 14.8217L3.0793 14.8159C2.90089 14.3558 2.77231 13.8183 2.73339 12.9901L7.72765 17.2729ZM6.95741 17.8677C6.07074 17.826 5.46574 17.6844 4.93407 17.4794L7.71241 17.8977L7.55074 17.8927C7.35292 17.8855 7.15514 17.8772 6.95741 17.8677ZM8.54685 14.0301L8.77989 13.4501L8.54685 14.0301C9.13464 14.2663 9.76341 14.3836 10.3968 14.3752C11.666 14.374 12.8831 13.8693 13.7806 12.9717C14.6792 12.0731 15.1841 10.8544 15.1841 9.58353C15.1841 8.57533 14.8663 7.5999 14.2863 6.7911C14.4325 6.83939 14.5859 6.8676 14.7424 6.87386L14.7549 6.87436H14.7674C15.2094 6.87436 15.6334 6.69877 15.9459 6.3862C16.2585 6.07364 16.4341 5.64972 16.4341 5.20769C16.4341 4.76567 16.2585 4.34174 15.9459 4.02918C15.6334 3.71662 15.2094 3.54103 14.7674 3.54103H14.1424V3.681C13.943 3.76802 13.7607 3.89404 13.6072 4.05382C13.309 4.36425 13.1424 4.77804 13.1424 5.20853C13.1424 5.38243 13.1696 5.55361 13.2217 5.71636C12.4067 5.12038 11.4186 4.79363 10.3968 4.79269C9.76343 4.78432 9.13465 4.90162 8.54685 5.13782C7.95768 5.37457 7.42145 5.72606 6.96931 6.17185C6.51716 6.61764 6.15813 7.14885 5.91307 7.73461C5.66801 8.32037 5.54182 8.94899 5.54182 9.58394C5.54182 10.2189 5.66801 10.8475 5.91307 11.4333C6.15813 12.019 6.51716 12.5502 6.96931 12.996C7.42145 13.4418 7.95768 13.7933 8.54685 14.0301ZM9.06742 8.2577C9.39473 7.93038 9.83061 7.73658 10.2904 7.71135L10.4039 7.70925C10.653 7.70466 10.9005 7.74975 11.1319 7.84188C11.3634 7.93401 11.5741 8.07134 11.7519 8.24584C11.9297 8.42035 12.0709 8.62852 12.1673 8.85822C12.2637 9.08791 12.3134 9.33451 12.3135 9.58362C12.3135 9.83273 12.2639 10.0794 12.1676 10.3091C12.0712 10.5388 11.9301 10.747 11.7524 10.9216C11.5746 11.0962 11.3639 11.2335 11.1325 11.3258L11.3638 11.9064L11.1325 11.3258C10.9011 11.418 10.6536 11.4631 10.4045 11.4586L10.4045 11.4585H10.3932C9.89596 11.4585 9.41905 11.261 9.06742 10.9094C8.71579 10.5577 8.51824 10.0808 8.51824 9.58353C8.51824 9.08625 8.71579 8.60933 9.06742 8.2577Z" fill="#1D1F2C" stroke="#1D1F2C" stroke-width="1.25"/>
</g>
</svg>
